solid OBJECT
  facet normal -1 0 0
    outer loop
      vertex -15 -15 -1.5
      vertex -15 15 -1.5
      vertex -15 15 -2.5
    endloop
  endfacet
  facet normal -1 0 0
    outer loop
      vertex -15 -15 -1.5
      vertex -15 15 -2.5
      vertex -15 -15 -2.5
    endloop
  endfacet
  facet normal -0 1 -0
    outer loop
      vertex -15 15 -1.5
      vertex 15 15 -1.5
      vertex 15 15 -2.5
    endloop
  endfacet
  facet normal -0 1 -0
    outer loop
      vertex -15 15 -1.5
      vertex 15 15 -2.5
      vertex -15 15 -2.5
    endloop
  endfacet
  facet normal 1 0 -0
    outer loop
      vertex 15 15 -1.5
      vertex 15 -15 -1.5
      vertex 15 -15 -2.5
    endloop
  endfacet
  facet normal 1 0 -0
    outer loop
      vertex 15 15 -1.5
      vertex 15 -15 -2.5
      vertex 15 15 -2.5
    endloop
  endfacet
  facet normal -0 -1 0
    outer loop
      vertex 15 -15 -1.5
      vertex -15 -15 -1.5
      vertex -15 -15 -2.5
    endloop
  endfacet
  facet normal -0 -1 0
    outer loop
      vertex 15 -15 -1.5
      vertex -15 -15 -2.5
      vertex 15 -15 -2.5
    endloop
  endfacet
  facet normal -0 -0 1
    outer loop
      vertex -15 15 -1.5
      vertex -15 -15 -1.5
      vertex 15 -15 -1.5
    endloop
  endfacet
  facet normal 0 0 1
    outer loop
      vertex 15 -15 -1.5
      vertex 15 15 -1.5
      vertex -15 15 -1.5
    endloop
  endfacet
  facet normal 0 0 -1
    outer loop
      vertex -15 15 -2.5
      vertex 15 -15 -2.5
      vertex -15 -15 -2.5
    endloop
  endfacet
  facet normal -0 -0 -1
    outer loop
      vertex 15 -15 -2.5
      vertex -15 15 -2.5
      vertex 15 15 -2.5
    endloop
  endfacet
endsolid OBJECT
